<svg width="18" height="15" viewBox="0 0 18 15" fill="none" xmlns="http://www.w3.org/2000/svg">
<path d="M17.7162 2.01024C17.0749 2.29469 16.3855 2.48694 15.6622 2.57338C16.4004 2.13076 16.9676 1.4299 17.2346 0.594735C16.5435 1.00462 15.7782 1.30224 14.9635 1.46259C14.3112 0.767518 13.3818 0.333252 12.3531 0.333252C10.378 0.333252 8.77661 1.93448 8.77661 3.90954C8.77661 4.18984 8.80828 4.4628 8.86928 4.72459C5.89695 4.57542 3.26166 3.15161 1.49778 0.987844C1.18991 1.51604 1.01355 2.13039 1.01355 2.78583C1.01355 4.02662 1.6449 5.12128 2.60456 5.76267C2.01836 5.744 1.46684 5.58317 0.984697 5.3153C0.984355 5.33024 0.984355 5.34517 0.984355 5.36025C0.984355 7.09309 2.21715 8.5385 3.8532 8.86709C3.55311 8.94884 3.23715 8.99259 2.91099 8.99259C2.68054 8.99259 2.4565 8.97009 2.23809 8.92842C2.69321 10.3492 4.01398 11.3833 5.57899 11.412C4.355 12.3713 2.81293 12.9431 1.13731 12.9431C0.848638 12.9431 0.563963 12.9261 0.28418 12.893C1.8669 13.9078 3.7468 14.4999 5.76645 14.4999C12.3447 14.4999 15.942 9.05034 15.942 4.32424C15.942 4.1692 15.9385 4.01496 15.9316 3.86154C16.6304 3.3573 17.2368 2.72744 17.7162 2.01024Z" fill="#0B1D26"/>
</svg>
