<svg width="107" height="37" viewBox="0 0 107 37" fill="none" xmlns="http://www.w3.org/2000/svg">
<g clip-path="url(#clip0_1_635)">
<path d="M29.0299 6.344V6.984C28.3472 7.00533 27.8352 7.09067 27.4939 7.24C27.1525 7.368 26.9179 7.624 26.7899 8.008C26.6832 8.37067 26.6299 8.94666 26.6299 9.736V25.608C26.6299 26.376 26.6832 26.952 26.7899 27.336C26.9179 27.72 27.1525 27.976 27.4939 28.104C27.8352 28.232 28.3472 28.3173 29.0299 28.36V29C28.4325 28.9573 27.6752 28.936 26.7579 28.936C25.8619 28.9147 24.9445 28.904 24.0059 28.904C22.9819 28.904 22.0219 28.9147 21.1259 28.936C20.2299 28.936 19.5045 28.9573 18.9499 29V28.36C19.6752 28.3173 20.2192 28.232 20.5819 28.104C20.9659 27.976 21.2219 27.72 21.3499 27.336C21.4779 26.952 21.5419 26.376 21.5419 25.608V8.296H21.7659L13.8299 29.032H13.3179L4.67788 8.424V23.752C4.67788 24.9253 4.74188 25.832 4.86988 26.472C4.99788 27.0907 5.27521 27.5387 5.70188 27.816C6.14988 28.072 6.84321 28.2533 7.78188 28.36V29C7.37654 28.9573 6.84321 28.936 6.18188 28.936C5.52054 28.9147 4.90188 28.904 4.32588 28.904C3.83521 28.904 3.33388 28.9147 2.82188 28.936C2.30988 28.936 1.88321 28.9573 1.54188 29V28.36C2.22454 28.2533 2.73654 28.072 3.07788 27.816C3.41921 27.56 3.64321 27.144 3.74988 26.568C3.87788 25.9707 3.94188 25.16 3.94188 24.136V9.736C3.94188 8.94666 3.87788 8.37067 3.74988 8.008C3.64321 7.624 3.40854 7.368 3.04588 7.24C2.70454 7.09067 2.20321 7.00533 1.54188 6.984V6.344C1.88321 6.36533 2.30988 6.38667 2.82188 6.408C3.33388 6.42933 3.83521 6.44 4.32588 6.44C5.24321 6.44 6.13921 6.42933 7.01388 6.408C7.90988 6.38667 8.69921 6.36533 9.38188 6.344L16.1019 22.568L15.3019 23.304L21.7339 6.44C22.0965 6.44 22.4699 6.44 22.8539 6.44C23.2379 6.44 23.6219 6.44 24.0059 6.44C24.9445 6.44 25.8619 6.42933 26.7579 6.408C27.6752 6.38667 28.4325 6.36533 29.0299 6.344Z" fill="#0B1D26"/>
<path d="M54.5979 6.344V6.984C53.9152 7.06933 53.4032 7.25067 53.0619 7.528C52.7205 7.784 52.4859 8.2 52.3579 8.776C52.2512 9.352 52.1979 10.1627 52.1979 11.208V29.064C51.9419 29.0427 51.6752 29.032 51.3979 29.032C51.1419 29.032 50.8645 29.0427 50.5659 29.064L36.6779 11.464V23.752C36.6779 24.9253 36.7419 25.832 36.8699 26.472C36.9979 27.0907 37.2752 27.5387 37.7019 27.816C38.1499 28.072 38.8432 28.2533 39.7819 28.36V29C39.3765 28.9573 38.8432 28.936 38.1819 28.936C37.5205 28.9147 36.9019 28.904 36.3259 28.904C35.8352 28.904 35.3339 28.9147 34.8219 28.936C34.3099 28.936 33.8832 28.9573 33.5419 29V28.36C34.2245 28.2533 34.7365 28.072 35.0779 27.816C35.4192 27.56 35.6432 27.144 35.7499 26.568C35.8779 25.9707 35.9419 25.16 35.9419 24.136V9.736C35.9419 8.94666 35.8779 8.37067 35.7499 8.008C35.6432 7.624 35.4085 7.368 35.0459 7.24C34.7045 7.09067 34.2032 7.00533 33.5419 6.984V6.344C33.8832 6.36533 34.3099 6.38667 34.8219 6.408C35.3339 6.42933 35.8352 6.44 36.3259 6.44C36.8379 6.44 37.3285 6.42933 37.7979 6.408C38.2672 6.38667 38.6939 6.36533 39.0779 6.344L51.4619 21.608V11.592C51.4619 10.4187 51.3979 9.52267 51.2699 8.904C51.1419 8.264 50.8539 7.80533 50.4059 7.528C49.9792 7.25067 49.2965 7.06933 48.3579 6.984V6.344C48.7632 6.36533 49.2965 6.38667 49.9579 6.408C50.6192 6.42933 51.2379 6.44 51.8139 6.44C52.3259 6.44 52.8272 6.42933 53.3179 6.408C53.8299 6.38667 54.2565 6.36533 54.5979 6.344Z" fill="#0B1D26"/>
<path d="M78.9659 6.344C78.8805 7.432 78.8165 8.47733 78.7739 9.48C78.7525 10.4827 78.7419 11.2507 78.7419 11.784C78.7419 12.2533 78.7525 12.7013 78.7739 13.128C78.7952 13.5547 78.8165 13.9173 78.8379 14.216H78.1019C77.7605 12.424 77.3232 11.0053 76.7899 9.96C76.2779 8.91467 75.6592 8.17867 74.9339 7.752C74.2085 7.304 73.3552 7.08 72.3739 7.08H71.6379V25.352C71.6379 26.2053 71.7232 26.8453 71.8939 27.272C72.0859 27.6987 72.4272 27.9867 72.9179 28.136C73.4085 28.264 74.1232 28.3387 75.0619 28.36V29C74.4005 28.9787 73.5152 28.9573 72.4059 28.936C71.3179 28.9147 70.1765 28.904 68.9819 28.904C67.8085 28.904 66.6992 28.9147 65.6539 28.936C64.6085 28.9573 63.7659 28.9787 63.1259 29V28.36C64.0859 28.3387 64.8112 28.264 65.3019 28.136C65.7925 27.9867 66.1232 27.6987 66.2939 27.272C66.4645 26.8453 66.5499 26.2053 66.5499 25.352V7.08H65.8459C64.8645 7.08 64.0112 7.304 63.2859 7.752C62.5605 8.17867 61.9419 8.91467 61.4299 9.96C60.9179 10.984 60.4699 12.4027 60.0859 14.216H59.3499C59.3925 13.9173 59.4139 13.5547 59.4139 13.128C59.4352 12.7013 59.4459 12.2533 59.4459 11.784C59.4459 11.2507 59.4245 10.4827 59.3819 9.48C59.3605 8.47733 59.3072 7.432 59.2219 6.344C60.2032 6.36533 61.2699 6.38667 62.4219 6.408C63.5952 6.42933 64.7685 6.44 65.9419 6.44C67.1152 6.44 68.1712 6.44 69.1099 6.44C70.0699 6.44 71.1259 6.44 72.2779 6.44C73.4512 6.44 74.6245 6.42933 75.7979 6.408C76.9712 6.38667 78.0272 6.36533 78.9659 6.344Z" fill="#0B1D26"/>
<path d="M104.598 6.344V6.984C103.915 7.06933 103.403 7.25067 103.062 7.528C102.721 7.784 102.486 8.2 102.358 8.776C102.251 9.352 102.198 10.1627 102.198 11.208V29.064C101.942 29.0427 101.675 29.032 101.398 29.032C101.142 29.032 100.865 29.0427 100.566 29.064L86.6779 11.464V23.752C86.6779 24.9253 86.7419 25.832 86.8699 26.472C86.9979 27.0907 87.2752 27.5387 87.7019 27.816C88.1499 28.072 88.8432 28.2533 89.7819 28.36V29C89.3765 28.9573 88.8432 28.936 88.1819 28.936C87.5205 28.9147 86.9019 28.904 86.3259 28.904C85.8352 28.904 85.3339 28.9147 84.8219 28.936C84.3099 28.936 83.8832 28.9573 83.5419 29V28.36C84.2245 28.2533 84.7365 28.072 85.0779 27.816C85.4192 27.56 85.6432 27.144 85.7499 26.568C85.8779 25.9707 85.9419 25.16 85.9419 24.136V9.736C85.9419 8.94666 85.8779 8.37067 85.7499 8.008C85.6432 7.624 85.4085 7.368 85.0459 7.24C84.7045 7.09067 84.2032 7.00533 83.5419 6.984V6.344C83.8832 6.36533 84.3099 6.38667 84.8219 6.408C85.3339 6.42933 85.8352 6.44 86.3259 6.44C86.8379 6.44 87.3285 6.42933 87.7979 6.408C88.2672 6.38667 88.6939 6.36533 89.0779 6.344L101.462 21.608V11.592C101.462 10.4187 101.398 9.52267 101.27 8.904C101.142 8.264 100.854 7.80533 100.406 7.528C99.9792 7.25067 99.2965 7.06933 98.3579 6.984V6.344C98.7632 6.36533 99.2965 6.38667 99.9579 6.408C100.619 6.42933 101.238 6.44 101.814 6.44C102.326 6.44 102.827 6.42933 103.318 6.408C103.83 6.38667 104.257 6.36533 104.598 6.344Z" fill="#0B1D26"/>
</g>
<defs>
<clipPath id="clip0_1_635">
<rect width="106" height="37" fill="white" transform="translate(0.421875)"/>
</clipPath>
</defs>
</svg>
