<svg width="25" height="25" viewBox="0 0 25 25" fill="none" xmlns="http://www.w3.org/2000/svg">
<path fill-rule="evenodd" clip-rule="evenodd" d="M12.0224 2.55908C6.49383 2.55908 2.00684 6.94276 2.00684 12.3441C2.00684 17.7454 6.49383 22.1291 12.0224 22.1291C17.5511 22.1291 22.038 17.7454 22.038 12.3441C22.038 6.94276 17.5511 2.55908 12.0224 2.55908ZM7.08475 18.4891C7.51542 17.6084 10.1395 16.7473 12.0224 16.7473C13.9054 16.7473 16.5395 17.6084 16.9601 18.4891C15.598 19.5458 13.8853 20.1721 12.0224 20.1721C10.1595 20.1721 8.44687 19.5458 7.08475 18.4891ZM18.3924 17.0702C16.9601 15.3676 13.4847 14.7903 12.0224 14.7903C10.5602 14.7903 7.08475 15.3676 5.65251 17.0702C4.63092 15.759 4.00996 14.1249 4.00996 12.3441C4.00996 8.02889 7.60556 4.51608 12.0224 4.51608C16.4393 4.51608 20.0349 8.02889 20.0349 12.3441C20.0349 14.1249 19.414 15.759 18.3924 17.0702ZM12.0224 6.47308C10.0794 6.47308 8.51698 7.99954 8.51698 9.89783C8.51698 11.7961 10.0794 13.3226 12.0224 13.3226C13.9655 13.3226 15.5279 11.7961 15.5279 9.89783C15.5279 7.99954 13.9655 6.47308 12.0224 6.47308ZM12.0224 11.3656C11.1911 11.3656 10.5201 10.71 10.5201 9.89783C10.5201 9.08567 11.1911 8.43008 12.0224 8.43008C12.8537 8.43008 13.5248 9.08567 13.5248 9.89783C13.5248 10.71 12.8537 11.3656 12.0224 11.3656Z" fill="#354147"/>
<mask id="mask0_1_643" style="mask-type:luminance" maskUnits="userSpaceOnUse" x="2" y="2" width="21" height="21">
<path fill-rule="evenodd" clip-rule="evenodd" d="M12.0224 2.55908C6.49383 2.55908 2.00684 6.94276 2.00684 12.3441C2.00684 17.7454 6.49383 22.1291 12.0224 22.1291C17.5511 22.1291 22.038 17.7454 22.038 12.3441C22.038 6.94276 17.5511 2.55908 12.0224 2.55908ZM7.08475 18.4891C7.51542 17.6084 10.1395 16.7473 12.0224 16.7473C13.9054 16.7473 16.5395 17.6084 16.9601 18.4891C15.598 19.5458 13.8853 20.1721 12.0224 20.1721C10.1595 20.1721 8.44687 19.5458 7.08475 18.4891ZM18.3924 17.0702C16.9601 15.3676 13.4847 14.7903 12.0224 14.7903C10.5602 14.7903 7.08475 15.3676 5.65251 17.0702C4.63092 15.759 4.00996 14.1249 4.00996 12.3441C4.00996 8.02889 7.60556 4.51608 12.0224 4.51608C16.4393 4.51608 20.0349 8.02889 20.0349 12.3441C20.0349 14.1249 19.414 15.759 18.3924 17.0702ZM12.0224 6.47308C10.0794 6.47308 8.51698 7.99954 8.51698 9.89783C8.51698 11.7961 10.0794 13.3226 12.0224 13.3226C13.9655 13.3226 15.5279 11.7961 15.5279 9.89783C15.5279 7.99954 13.9655 6.47308 12.0224 6.47308ZM12.0224 11.3656C11.1911 11.3656 10.5201 10.71 10.5201 9.89783C10.5201 9.08567 11.1911 8.43008 12.0224 8.43008C12.8537 8.43008 13.5248 9.08567 13.5248 9.89783C13.5248 10.71 12.8537 11.3656 12.0224 11.3656Z" fill="white"/>
</mask>
<g mask="url(#mask0_1_643)">
</g>
</svg>
