<svg width="20" height="20" viewBox="0 0 20 20" fill="none" xmlns="http://www.w3.org/2000/svg">
<path d="M6.49984 1.66675H13.4998C16.1692 1.66675 18.3332 3.83071 18.3332 6.50008V13.5001C18.3332 16.1695 16.1692 18.3334 13.4998 18.3334H6.49984C3.83046 18.3334 1.6665 16.1695 1.6665 13.5001V6.50008C1.6665 3.83071 3.83046 1.66675 6.49984 1.66675ZM6.33317 3.3334C4.67631 3.3334 3.33317 4.67655 3.33317 6.3334V13.6667C3.33317 15.3236 4.67631 16.6667 6.33317 16.6667H13.6665C15.3233 16.6667 16.6665 15.3236 16.6665 13.6667V6.3334C16.6665 4.67655 15.3233 3.3334 13.6665 3.3334H6.33317ZM14.3748 4.5834C14.9502 4.5834 15.4165 5.04977 15.4165 5.62506C15.4165 6.20036 14.9502 6.66673 14.3748 6.66673C13.7995 6.66673 13.3332 6.20036 13.3332 5.62506C13.3332 5.04977 13.7995 4.5834 14.3748 4.5834ZM9.99984 5.8334C12.301 5.8334 14.1665 7.69888 14.1665 10.0001C14.1665 12.3012 12.301 14.1667 9.99984 14.1667C7.69865 14.1667 5.83317 12.3012 5.83317 10.0001C5.83317 7.69888 7.69865 5.8334 9.99984 5.8334ZM9.99984 7.50006C8.61909 7.50006 7.49984 8.6194 7.49984 10.0001C7.49984 11.3808 8.61909 12.5001 9.99984 12.5001C11.3806 12.5001 12.4998 11.3808 12.4998 10.0001C12.4998 8.6194 11.3806 7.50006 9.99984 7.50006Z" fill="#0B1D26"/>
</svg>
